<svg width="55" height="68" viewBox="0 0 55 68" fill="none"
    xmlns="http://www.w3.org/2000/svg">
    <path fill-rule="evenodd" clip-rule="evenodd" d="M21.6666 0.666626H33.3332C37.1929 0.666626 40.3719 3.58236 40.7873 7.33143L46.6666 7.33329C50.8086 7.33329 54.1666 10.6912 54.1666 14.8333V59.8333C54.1666 63.9753 50.8086 67.3333 46.6666 67.3333H8.33325C4.19112 67.3333 0.833252 63.9753 0.833252 59.8333V14.8333C0.833252 10.6912 4.19112 7.33329 8.33325 7.33329L14.2126 7.33143C14.628 3.58236 17.8067 0.666626 21.6666 0.666626ZM33.3332 5.66663H21.6666C20.2859 5.66663 19.1666 6.78593 19.1666 8.16663C19.1666 9.54733 20.2859 10.6666 21.6666 10.6666H33.3332C34.7139 10.6666 35.8332 9.54733 35.8332 8.16663C35.8332 6.78593 34.7139 5.66663 33.3332 5.66663ZM14.1666 24.8333C12.7859 24.8333 11.6666 25.9526 11.6666 27.3333C11.6666 28.714 12.7859 29.8333 14.1666 29.8333H40.8333C42.214 29.8333 43.3333 28.714 43.3333 27.3333C43.3333 25.9526 42.214 24.8333 40.8333 24.8333H14.1666ZM14.1666 35.7222C12.7859 35.7222 11.6666 36.8415 11.6666 38.2222C11.6666 39.6029 12.7859 40.7222 14.1666 40.7222H40.8333C42.214 40.7222 43.3333 39.6029 43.3333 38.2222C43.3333 36.8415 42.214 35.7222 40.8333 35.7222H14.1666ZM14.1666 46.5C12.7859 46.5 11.6666 47.6192 11.6666 49C11.6666 50.3807 12.7859 51.5 14.1666 51.5H40.8333C42.214 51.5 43.3333 50.3807 43.3333 49C43.3333 47.6192 42.214 46.5 40.8333 46.5H14.1666Z" fill="#14A75D"/>
</svg>
