<svg width="18" height="18" viewBox="0 0 18 18" fill="none"
    xmlns="http://www.w3.org/2000/svg">
    <path fill-rule="evenodd" clip-rule="evenodd" d="M8.43745 4.19995C7.96109 4.19995 7.57495 4.58611 7.57495 5.06245V9.56245C7.57495 10.0388 7.9611 10.4249 8.43745 10.4249H11.25C11.7263 10.4249 12.1124 10.0388 12.1124 9.56245C12.1124 9.0861 11.7263 8.69995 11.25 8.69995H9.29995V5.06245C9.29995 4.58611 8.91381 4.19995 8.43745 4.19995ZM11.25 8.99995C11.25 8.99995 11.25 8.99995 11.25 8.99995L8.99997 8.99995H11.25ZM8.32408 10.1135C8.06777 10.0611 7.87497 9.83428 7.87497 9.56245V5.06245C7.87497 4.79548 8.06095 4.57195 8.31042 4.51435C8.06094 4.57194 7.87495 4.79548 7.87495 5.06245V9.56245C7.87495 9.83428 8.06776 10.0611 8.32408 10.1135ZM8.99995 17.1749C13.5149 17.1749 17.1749 13.5149 17.1749 8.99995C17.1749 4.48502 13.5149 0.824951 8.99995 0.824951C4.48502 0.824951 0.824951 4.48502 0.824951 8.99995C0.824951 13.5149 4.48502 17.1749 8.99995 17.1749ZM8.99995 15.45C5.43771 15.45 2.54995 12.5622 2.54995 8.99995C2.54995 5.43771 5.43771 2.54995 8.99995 2.54995C12.5622 2.54995 15.45 5.43771 15.45 8.99995C15.45 12.5622 12.5622 15.45 8.99995 15.45ZM7.20421 1.33061C3.72025 2.14318 1.12497 5.26849 1.12497 8.99995C1.12497 11.7182 2.50221 14.1148 4.59696 15.53C2.5022 14.1148 1.12495 11.7182 1.12495 8.99995C1.12495 5.26848 3.72023 2.14318 7.20421 1.33061ZM11.6274 15.2195C14.05 14.1948 15.75 11.7959 15.75 8.99995C15.75 5.73801 13.4362 3.01649 10.3603 2.38709C13.4362 3.0165 15.7499 5.73802 15.7499 8.99995C15.7499 11.7959 14.05 14.1948 11.6274 15.2195Z" fill="white"/>
</svg>
