<svg width="67" height="68" viewBox="0 0 67 68" fill="none"
    xmlns="http://www.w3.org/2000/svg">
    <path d="M33.5 0.666626C51.9093 0.666626 66.8333 15.5905 66.8333 34C66.8333 52.4093 51.9093 67.3333 33.5 67.3333C15.0905 67.3333 0.166626 52.4093 0.166626 34C0.166626 15.5905 15.0905 0.666626 33.5 0.666626ZM33.5 5.66663C17.8519 5.66663 5.16663 18.3519 5.16663 34C5.16663 49.648 17.8519 62.3333 33.5 62.3333C49.148 62.3333 61.8333 49.648 61.8333 34C61.8333 18.3519 49.148 5.66663 33.5 5.66663ZM44.9873 21.9901L45.2676 22.2322C46.1553 23.1198 46.236 24.5086 45.5096 25.4873L45.2676 25.7677L37.0366 34L45.2676 42.2323C46.1553 43.1196 46.236 44.5086 45.5096 45.4873L45.2676 45.7676C44.3803 46.6553 42.9913 46.736 42.0126 46.0096L41.7323 45.7676L33.5 37.5366L25.2677 45.7676C24.3802 46.6553 22.9913 46.736 22.0126 46.0096L21.7322 45.7676C20.8446 44.8803 20.764 43.4913 21.4901 42.5126L21.7322 42.2323L29.9633 34L21.7322 25.7677C20.8446 24.8802 20.764 23.4913 21.4901 22.5126L21.7322 22.2322C22.6198 21.3446 24.0086 21.264 24.9873 21.9901L25.2677 22.2322L33.5 30.4633L41.7323 22.2322C42.6196 21.3446 44.0086 21.264 44.9873 21.9901Z" fill="#E2853A"/>
</svg>
